<?xml version="1.0" encoding="UTF-8" standalone="no"?>
<svg
   xmlns:dc="http://purl.org/dc/elements/1.1/"
   xmlns:cc="http://creativecommons.org/ns#"
   xmlns:rdf="http://www.w3.org/1999/02/22-rdf-syntax-ns#"
   xmlns:svg="http://www.w3.org/2000/svg"
   xmlns="http://www.w3.org/2000/svg"
   xmlns:sodipodi="http://sodipodi.sourceforge.net/DTD/sodipodi-0.dtd"
   xmlns:inkscape="http://www.inkscape.org/namespaces/inkscape"
   enable-background="new 0 0 500 500"
   height="128"
   id="Layer_1"
   version="1.1"
   viewBox="0 0 128 128"
   width="128"
   xml:space="preserve"
   inkscape:version="0.48.4 r9939"
   sodipodi:docname="drive_icon_gen.svg"><metadata
     id="metadata9"><rdf:RDF><cc:Work
         rdf:about=""><dc:format>image/svg+xml</dc:format><dc:type
           rdf:resource="http://purl.org/dc/dcmitype/StillImage" /></cc:Work></rdf:RDF></metadata><defs
     id="defs7" /><sodipodi:namedview
     pagecolor="#ffffff"
     bordercolor="#666666"
     borderopacity="1"
     objecttolerance="10"
     gridtolerance="10"
     guidetolerance="10"
     inkscape:pageopacity="0"
     inkscape:pageshadow="2"
     inkscape:window-width="1680"
     inkscape:window-height="990"
     id="namedview5"
     showgrid="false"
     inkscape:zoom="3.776"
     inkscape:cx="43.121168"
     inkscape:cy="43.244928"
     inkscape:window-x="0"
     inkscape:window-y="27"
     inkscape:window-maximized="1"
     inkscape:current-layer="Layer_1" /><path
     clip-rule="evenodd"
     d="m 91.426688,4.3429755 c -4.018643,-4.0416092 -10.538893,-4.0416092 -14.580792,0 L 45.863874,35.246347 39.267558,28.648596 15.716864,52.302908 c -2.557006,2.556718 -3.782115,5.867518 -3.782115,9.285352 v 31.007863 l 0.05115,0.05041 -7.4568849,7.487875 c -4.04161062,4.03932 -4.04161062,10.55957 0,14.57822 l 8.7609299,8.76093 c 4.019219,4.04533 10.538892,4.04533 14.578491,0 l 7.487599,-7.45719 0.05114,0.0513 h 31.060678 c 3.33634,0.0512 6.728356,-1.22423 9.283068,-3.78183 L 99.302179,88.68403 92.756375,82.138521 123.66033,51.157056 c 4.04132,-4.043327 4.04132,-10.563004 0,-14.579638 L 91.426688,4.3429755 z m 10.324752,37.6589995 2.5062,2.503329 c 2.08625,2.087111 2.08625,5.425167 0,7.510844 l -2.5062,2.50505 c -2.086252,2.085376 -5.424595,2.085376 -7.508258,0 l -2.5062,-2.50505 c -2.086254,-2.085677 -2.086254,-5.423733 0,-7.510844 l 2.5062,-2.503329 c 2.083663,-2.087401 5.422296,-2.087401 7.508258,0 z m -18.255549,-18.25584 2.506198,2.503902 c 2.086248,2.087112 2.086248,5.424597 0,7.510847 l -2.506198,2.504477 c -2.086248,2.085961 -5.424599,2.085961 -7.508262,0 l -2.506195,-2.504477 c -2.085103,-2.08625 -2.085103,-5.423735 0,-7.510847 l 2.506195,-2.503902 c 2.083384,-2.087112 5.422014,-2.087112 7.508262,0 z"
     id="path3"
     inkscape:connector-curvature="0"
     style="fill:#686868;fill-opacity:1;fill-rule:evenodd" /></svg>
