<?xml version="1.0" encoding="UTF-8" standalone="no"?>
<svg
   xmlns:dc="http://purl.org/dc/elements/1.1/"
   xmlns:cc="http://creativecommons.org/ns#"
   xmlns:rdf="http://www.w3.org/1999/02/22-rdf-syntax-ns#"
   xmlns:svg="http://www.w3.org/2000/svg"
   xmlns="http://www.w3.org/2000/svg"
   xmlns:sodipodi="http://sodipodi.sourceforge.net/DTD/sodipodi-0.dtd"
   xmlns:inkscape="http://www.inkscape.org/namespaces/inkscape"
   enable-background="new 0 0 500 500"
   height="48"
   id="Layer_1"
   version="1.1"
   viewBox="0 0 48 48"
   width="48"
   xml:space="preserve"
   inkscape:version="0.48.4 r9939"
   sodipodi:docname="drive_icon.svg"><metadata
     id="metadata9"><rdf:RDF><cc:Work
         rdf:about=""><dc:format>image/svg+xml</dc:format><dc:type
           rdf:resource="http://purl.org/dc/dcmitype/StillImage" /></cc:Work></rdf:RDF></metadata><defs
     id="defs7" /><sodipodi:namedview
     pagecolor="#ffffff"
     bordercolor="#666666"
     borderopacity="1"
     objecttolerance="10"
     gridtolerance="10"
     guidetolerance="10"
     inkscape:pageopacity="0"
     inkscape:pageshadow="2"
     inkscape:window-width="1680"
     inkscape:window-height="990"
     id="namedview5"
     showgrid="false"
     inkscape:zoom="7.552"
     inkscape:cx="31.402845"
     inkscape:cy="9.5173074"
     inkscape:window-x="0"
     inkscape:window-y="27"
     inkscape:window-maximized="1"
     inkscape:current-layer="Layer_1" /><path
     clip-rule="evenodd"
     d="m 33.786151,2.6452037 c -1.442866,-1.4511115 -3.783917,-1.4511115 -5.235133,0 L 17.427136,13.740847 15.058774,11.37197 6.6030591,19.864888 c -0.9180753,0.917973 -1.3579424,2.106688 -1.3579424,3.333846 v 11.133157 l 0.018364,0.01807 -2.6773432,2.688472 c -1.4511125,1.450289 -1.4511125,3.791336 0,5.234205 l 3.1455517,3.145552 c 1.4430731,1.452451 3.7839167,1.452451 5.2343066,0 l 2.688371,-2.677447 0.01836,0.01836 H 24.82485 c 1.19789,0.01836 2.41577,-0.439558 3.333022,-1.357841 l 8.45592,-8.474056 -2.350226,-2.350121 11.095853,-11.123677 c 1.451007,-1.451729 1.451007,-3.792574 0,-5.234719 L 33.786151,2.6452037 z m 3.707033,13.5212053 0.899832,0.898803 c 0.749054,0.749363 0.749054,1.947869 0,2.696717 l -0.899832,0.899422 c -0.749056,0.748744 -1.947665,0.748744 -2.69579,0 L 33.89756,19.761929 c -0.749055,-0.748848 -0.749055,-1.947354 0,-2.696717 l 0.899834,-0.898803 c 0.748125,-0.749467 1.946838,-0.749467 2.69579,0 z m -6.554531,-6.5546336 0.899833,0.8990086 c 0.749053,0.749363 0.749053,1.947664 0,2.696718 l -0.899833,0.899215 c -0.749053,0.74895 -1.947665,0.74895 -2.69579,0 l -0.899832,-0.899215 c -0.748642,-0.749054 -0.748642,-1.947355 0,-2.696718 l 0.899832,-0.8990086 c 0.748025,-0.749363 1.946737,-0.749363 2.69579,0 z"
     id="path3"
     inkscape:connector-curvature="0"
     style="fill:#686868;fill-rule:evenodd;fill-opacity:1" /></svg>