<?xml version="1.0" encoding="UTF-8" standalone="no"?>
<svg
   xmlns:dc="http://purl.org/dc/elements/1.1/"
   xmlns:cc="http://creativecommons.org/ns#"
   xmlns:rdf="http://www.w3.org/1999/02/22-rdf-syntax-ns#"
   xmlns:svg="http://www.w3.org/2000/svg"
   xmlns="http://www.w3.org/2000/svg"
   xmlns:sodipodi="http://sodipodi.sourceforge.net/DTD/sodipodi-0.dtd"
   xmlns:inkscape="http://www.inkscape.org/namespaces/inkscape"
   enable-background="new 0 0 500 500"
   height="500px"
   id="Layer_1"
   version="1.1"
   viewBox="0 0 500 500"
   width="500px"
   xml:space="preserve"
   inkscape:version="0.48.4 r9939"
   sodipodi:docname="1416162449_26.svg"
   inkscape:export-filename="/home/jan/Pictures/drivemount.png"
   inkscape:export-xdpi="92.160004"
   inkscape:export-ydpi="92.160004"><metadata
     id="metadata9"><rdf:RDF><cc:Work
         rdf:about=""><dc:format>image/svg+xml</dc:format><dc:type
           rdf:resource="http://purl.org/dc/dcmitype/StillImage" /><dc:title></dc:title></cc:Work></rdf:RDF></metadata><defs
     id="defs7"><filter
       id="filter3906"
       inkscape:label="Motion blur, vertical"
       inkscape:menu="Blurs"
       inkscape:menu-tooltip="Blur as if the object flies vertically; adjust Standard Deviation to vary force"
       color-interpolation-filters="sRGB"><feGaussianBlur
         id="feGaussianBlur3908"
         in="SourceGraphic"
         stdDeviation="0.01 5" /></filter><filter
       id="filter3925"
       inkscape:label="Motion blur, horizontal"
       inkscape:menu="Blurs"
       inkscape:menu-tooltip="Blur as if the object flies horizontally; adjust Standard Deviation to vary force"
       color-interpolation-filters="sRGB"><feGaussianBlur
         id="feGaussianBlur3927"
         in="SourceGraphic"
         stdDeviation="0.01 5" /></filter></defs><sodipodi:namedview
     pagecolor="#ffffff"
     bordercolor="#666666"
     borderopacity="1"
     objecttolerance="10"
     gridtolerance="10"
     guidetolerance="10"
     inkscape:pageopacity="0"
     inkscape:pageshadow="2"
     inkscape:window-width="1680"
     inkscape:window-height="990"
     id="namedview5"
     showgrid="false"
     inkscape:zoom="1"
     inkscape:cx="86.126919"
     inkscape:cy="216.73769"
     inkscape:window-x="0"
     inkscape:window-y="27"
     inkscape:window-maximized="1"
     inkscape:current-layer="g3910" /><g
     inkscape:groupmode="layer"
     id="layer4"
     inkscape:label="Container"
     sodipodi:insensitive="true"><rect
       style="fill:#cccccc;fill-opacity:1;stroke:none"
       id="rect3819"
       width="448"
       height="448"
       x="31"
       y="25.999998"
       ry="24.1" /></g><g
     inkscape:groupmode="layer"
     id="layer2"
     inkscape:label="Handle Shadow"
     style="display:inline"
     sodipodi:insensitive="true"><path
       style="fill:#676767;fill-opacity:1;stroke:none"
       d="m 210.6826,128.97799 244.28282,244.36102 6.9e-4,100.65928 -311.86061,0.003 -70.06603,-72.81908 z"
       id="path3787"
       inkscape:connector-curvature="0"
       sodipodi:nodetypes="cccccc" /></g><g
     inkscape:groupmode="layer"
     id="layer5"
     inkscape:label="bottom left shadow"
     style="display:inline"
     sodipodi:insensitive="true"><rect
       style="fill:#666666;fill-opacity:1;stroke:none;display:inline"
       id="rect3823"
       width="48"
       height="48"
       x="430.97198"
       y="425.97198"
       ry="24" /></g><g
     inkscape:groupmode="layer"
     id="layer3"
     inkscape:label="Plug Shadow"
     style="display:inline"
     sodipodi:insensitive="true"><path
       style="fill:#676767;fill-opacity:1;stroke:none;display:inline"
       d="m 379.32026,85.657976 99.68018,99.736344 -0.35156,264.84982 -113.47543,-79 -60.77706,-71.9888 106.19283,-43.37325 0,-95.33792 z"
       id="path3797"
       inkscape:connector-curvature="0"
       sodipodi:nodetypes="cccccccc" /></g><g
     style="display:inline"
     inkscape:label="Plug dropshadow"
     id="g3910"
     inkscape:groupmode="layer"><path
       sodipodi:nodetypes="ccccccccccccccccccccccccc"
       inkscape:connector-curvature="0"
       style="fill:#333333;fill-opacity:1;fill-rule:evenodd;filter:url(#filter3925)"
       id="path3912"
       d="M 387.3409,94.669398 C 377.99127,79.843545 358.42232,75.469366 343.58021,84.887723 L 229.86333,156.85208 c 0.8829,0.77331 109.27677,172.19147 109.27677,172.19147 l 113.53492,-72.25107 c 16.96288,-16.84852 19.21535,-26.51626 9.78091,-43.75724 z m 2.47331,119.950812 5.84237,9.19445 c 4.86121,7.66355 2.62185,17.68191 -5.03873,22.54198 l -9.20229,5.83698 c -7.66036,4.85922 -17.6796,2.61966 -22.53421,-5.03699 l -5.84122,-9.19961 c -6.36217,-10.28424 -3.3103,-16.92761 5.03873,-22.54198 l 9.20114,-5.83183 c 7.65398,-4.86696 17.67406,-2.6272 22.53421,5.037 z m -42.54246,-67.03739 5.84196,9.19617 c 4.86121,7.66353 2.62224,17.68019 -5.03874,22.54198 l -9.2019,5.83527 c -7.66074,4.86091 -17.67999,2.62136 -22.53422,-5.03699 l -5.84158,-9.19791 c -5.74223,-10.66539 -3.68002,-16.88132 5.03872,-22.54197 l 9.20152,-5.83354 c 7.65294,-4.86629 17.67302,-2.62653 22.53424,5.03699 z"
       clip-rule="evenodd" /></g><g
     inkscape:groupmode="layer"
     id="layer1"
     inkscape:label="Plug"
     style="display:inline"
     sodipodi:insensitive="true"><path
       clip-rule="evenodd"
       d="M 383.42668,90.962291 C 374.07705,76.136438 354.5081,71.762259 339.66599,81.180616 L 225.94911,153.14497 c 0.8829,0.77331 109.27677,172.19147 109.27677,172.19147 L 448.7608,253.08537 c 14.84156,-9.4239 19.21535,-28.99114 9.78091,-43.75724 z m 5.72331,119.950809 5.84237,9.19445 c 4.86121,7.66355 2.62185,17.68191 -5.03873,22.54198 l -9.20229,5.83698 c -7.66036,4.85922 -17.6796,2.61966 -22.53421,-5.03699 l -5.84122,-9.19961 c -4.86217,-7.65924 -2.6228,-17.67761 5.03873,-22.54198 l 9.20114,-5.83183 c 7.65398,-4.86696 17.67406,-2.6272 22.53421,5.037 z m -42.54246,-67.03739 5.84196,9.19617 c 4.86121,7.66353 2.62224,17.68019 -5.03874,22.54198 l -9.2019,5.83527 c -7.66074,4.86091 -17.67999,2.62136 -22.53422,-5.03699 l -5.84158,-9.19791 c -4.85835,-7.66019 -2.61936,-17.67682 5.03872,-22.54197 l 9.20152,-5.83354 c 7.65294,-4.86629 17.67302,-2.62653 22.53424,5.03699 z"
       id="path3"
       style="fill:#b3b3b3;fill-opacity:1;fill-rule:evenodd"
       inkscape:connector-curvature="0"
       sodipodi:nodetypes="ccccccccccccccccccccccccc" /></g><g
     style="display:inline"
     inkscape:label="Handle"
     id="g3778"
     inkscape:groupmode="layer"
     sodipodi:insensitive="true"><path
       inkscape:connector-curvature="0"
       style="fill:#333333;fill-opacity:1;fill-rule:evenodd"
       id="path3780"
       d="m 210.57805,128.91821 -86.55042,55.19344 c -9.38943,5.95799 -15.28738,15.07263 -17.58029,25.3305 l -20.80194,93.06254 0.11878,0.18486 -27.403339,17.47054 c -14.839718,9.41165 -19.213893,28.98059 -9.77994,43.75293 l 20.416445,32.17116 c 9.348844,14.83744 28.916064,19.21123 43.753804,9.78013 l 27.47491,-17.35774 0.11841,0.18656 93.22106,20.83738 c 9.97872,2.39243 21.01483,0.83948 30.39796,-5.1226 l 86.51689,-55.03539 z"
       clip-rule="evenodd"
       sodipodi:nodetypes="ccscccccccccccc" /></g><g
     inkscape:groupmode="layer"
     id="g3874"
     inkscape:label="Handle dropshadow"
     style="display:inline"
     sodipodi:insensitive="true"><path
       sodipodi:nodetypes="ccscccccccccccc"
       clip-rule="evenodd"
       d="m 211.8155,133.33766 -86.55042,55.19344 c -9.38943,5.95799 -15.28738,15.07263 -17.58029,25.3305 l -20.801952,93.06254 0.11878,0.18486 -27.403339,17.47054 c -14.839718,9.41165 -19.213893,28.98059 -9.77994,43.75293 l 20.416445,32.17116 c 9.348844,14.83744 28.916062,19.21123 43.753816,9.78013 l 27.47491,-17.35774 0.11841,0.18656 93.22106,20.83738 c 9.97872,2.39243 21.01483,0.83948 30.39796,-5.1226 l 86.51689,-55.03539 z"
       id="path3876"
       style="fill:#333333;fill-opacity:1;fill-rule:evenodd;filter:url(#filter3906)"
       inkscape:connector-curvature="0" /></g><g
     style="display:inline"
     inkscape:label="handle shadow overlaps plug"
     id="g3789"
     inkscape:groupmode="layer"
     sodipodi:insensitive="true"><path
       sodipodi:nodetypes="ccccc"
       inkscape:connector-curvature="0"
       id="path3793"
       d="m 231.39375,149.69694 147.68868,147.7327 -43.83309,27.95852 -109.29465,-172.243 z"
       style="fill:#4d4d4d;fill-opacity:1;stroke:none" /></g></svg>