<?xml version="1.0" encoding="UTF-8" standalone="no"?>
<svg
   xmlns:dc="http://purl.org/dc/elements/1.1/"
   xmlns:cc="http://creativecommons.org/ns#"
   xmlns:rdf="http://www.w3.org/1999/02/22-rdf-syntax-ns#"
   xmlns:svg="http://www.w3.org/2000/svg"
   xmlns="http://www.w3.org/2000/svg"
   xmlns:sodipodi="http://sodipodi.sourceforge.net/DTD/sodipodi-0.dtd"
   xmlns:inkscape="http://www.inkscape.org/namespaces/inkscape"
   enable-background="new 0 0 500 500"
   height="512"
   id="Layer_1"
   version="1.1"
   viewBox="0 0 512 512"
   width="512"
   xml:space="preserve"
   inkscape:version="0.48.4 r9939"
   sodipodi:docname="icon_gen.svg"
   inkscape:export-filename="/home/jan/Pictures/drivemount.png"
   inkscape:export-xdpi="92.160004"
   inkscape:export-ydpi="92.160004"><metadata
     id="metadata9"><rdf:RDF><cc:Work
         rdf:about=""><dc:format>image/svg+xml</dc:format><dc:type
           rdf:resource="http://purl.org/dc/dcmitype/StillImage" /><dc:title /></cc:Work></rdf:RDF></metadata><defs
     id="defs7"><filter
       id="filter3906"
       inkscape:label="Motion blur, vertical"
       inkscape:menu="Blurs"
       inkscape:menu-tooltip="Blur as if the object flies vertically; adjust Standard Deviation to vary force"
       color-interpolation-filters="sRGB"><feGaussianBlur
         id="feGaussianBlur3908"
         in="SourceGraphic"
         stdDeviation="0.01 5" /></filter><filter
       id="filter3925"
       inkscape:label="Motion blur, horizontal"
       inkscape:menu="Blurs"
       inkscape:menu-tooltip="Blur as if the object flies horizontally; adjust Standard Deviation to vary force"
       color-interpolation-filters="sRGB"><feGaussianBlur
         id="feGaussianBlur3927"
         in="SourceGraphic"
         stdDeviation="0.01 5" /></filter></defs><sodipodi:namedview
     pagecolor="#ffffff"
     bordercolor="#666666"
     borderopacity="1"
     objecttolerance="10"
     gridtolerance="10"
     guidetolerance="10"
     inkscape:pageopacity="0"
     inkscape:pageshadow="2"
     inkscape:window-width="1680"
     inkscape:window-height="990"
     id="namedview5"
     showgrid="false"
     inkscape:zoom="1"
     inkscape:cx="227.58243"
     inkscape:cy="221.68443"
     inkscape:window-x="0"
     inkscape:window-y="27"
     inkscape:window-maximized="1"
     inkscape:current-layer="g3910" /><g
     inkscape:groupmode="layer"
     id="layer4"
     inkscape:label="Container"
     transform="translate(0,12)"><rect
       style="fill:#cccccc;fill-opacity:1;stroke:none"
       id="rect3819"
       width="497.67407"
       height="497.67407"
       x="7.7705002"
       y="-4.2546167"
       ry="26.7722" /></g><g
     inkscape:groupmode="layer"
     id="layer2"
     inkscape:label="Handle Shadow"
     style="display:inline"
     transform="translate(0,12)"><path
       style="fill:#676767;fill-opacity:1;stroke:none"
       d="m 207.37626,110.14145 271.36884,271.45569 7.1e-4,111.82036 -346.43959,0.003 -77.834927,-80.89327 z"
       id="path3787"
       inkscape:connector-curvature="0"
       sodipodi:nodetypes="cccccc" /></g><g
     inkscape:groupmode="layer"
     id="layer5"
     inkscape:label="bottom left shadow"
     style="display:inline"
     transform="translate(0,12)"><rect
       style="fill:#666666;fill-opacity:1;stroke:none;display:inline"
       id="rect3823"
       width="53.322224"
       height="53.322224"
       x="452.09131"
       y="440.06607"
       ry="26.661112" /></g><g
     inkscape:groupmode="layer"
     id="layer3"
     inkscape:label="Plug Shadow"
     style="display:inline"
     transform="translate(0,12)"><path
       style="fill:#676767;fill-opacity:1;stroke:none;display:inline"
       d="m 394.71239,62.018081 110.73267,110.795009 -0.39039,294.21637 -126.05755,-87.75956 -67.51601,-79.97086 117.96744,-48.18242 0,-105.909 z"
       id="path3797"
       inkscape:connector-curvature="0"
       sodipodi:nodetypes="cccccccc" /></g><g
     style="display:inline"
     inkscape:label="Plug dropshadow"
     id="g3910"
     inkscape:groupmode="layer"
     transform="translate(0,12)"><path
       sodipodi:nodetypes="ccccccccccccccccccccccccc"
       inkscape:connector-curvature="0"
       style="fill:#333333;fill-opacity:1;fill-rule:evenodd;filter:url(#filter3925)"
       id="path3912"
       d="M 387.3409,94.669398 C 377.99127,79.843545 358.42232,75.469366 343.58021,84.887723 L 229.86333,156.85208 c 0.8829,0.77331 109.27677,172.19147 109.27677,172.19147 l 113.53492,-72.25107 c 16.96288,-16.84852 19.21535,-26.51626 9.78091,-43.75724 z m 2.47331,119.950812 5.84237,9.19445 c 4.86121,7.66355 2.62185,17.68191 -5.03873,22.54198 l -9.20229,5.83698 c -7.66036,4.85922 -17.6796,2.61966 -22.53421,-5.03699 l -5.84122,-9.19961 c -6.36217,-10.28424 -3.3103,-16.92761 5.03873,-22.54198 l 9.20114,-5.83183 c 7.65398,-4.86696 17.67406,-2.6272 22.53421,5.037 z m -42.54246,-67.03739 5.84196,9.19617 c 4.86121,7.66353 2.62224,17.68019 -5.03874,22.54198 l -9.2019,5.83527 c -7.66074,4.86091 -17.67999,2.62136 -22.53422,-5.03699 l -5.84158,-9.19791 c -5.74223,-10.66539 -3.68002,-16.88132 5.03872,-22.54197 l 9.20152,-5.83354 c 7.65294,-4.86629 17.67302,-2.62653 22.53424,5.03699 z"
       clip-rule="evenodd"
       transform="matrix(1.1108797,0,0,1.1108797,-26.66677,-33.137677)" /></g><g
     inkscape:groupmode="layer"
     id="layer1"
     inkscape:label="Plug"
     style="display:inline"
     transform="translate(0,12)"><path
       clip-rule="evenodd"
       d="M 399.27416,67.910499 C 388.88786,51.440762 367.14909,46.58172 350.66128,57.044281 L 224.33551,136.98807 c 0.98079,0.8579 121.39337,191.28394 121.39337,191.28394 L 471.85253,248.0098 c 16.48715,-10.46891 21.34593,-32.20569 10.86541,-48.60902 z m 6.35789,133.250971 6.49017,10.21399 c 5.40024,8.51313 2.91259,19.6424 -5.59743,25.04147 l -10.22266,6.48415 c -8.50972,5.39796 -19.63987,2.91005 -25.03275,-5.59561 l -6.48889,-10.21967 c -5.40131,-8.50845 -2.91362,-19.63761 5.5974,-25.04136 l 10.22137,-6.47847 c 8.50265,-5.40653 19.63374,-2.91852 25.03279,5.5955 z m -47.25954,-74.47051 6.4897,10.21589 c 5.40023,8.51324 2.91304,19.6405 -5.5974,25.04135 l -10.22224,6.48237 c -8.51015,5.39985 -19.64032,2.91206 -25.03277,-5.5955 l -6.48932,-10.21778 c -5.39705,-8.50956 -2.90979,-19.63683 5.59739,-25.04147 l 10.22181,-6.48025 c 8.50148,-5.40598 19.6326,-2.91785 25.03283,5.59539 z"
       id="path3"
       style="fill:#b3b3b3;fill-opacity:1;fill-rule:evenodd"
       inkscape:connector-curvature="0"
       sodipodi:nodetypes="ccccccccccccccccccccccccc" /></g><g
     style="display:inline"
     inkscape:label="Handle"
     id="g3778"
     inkscape:groupmode="layer"
     transform="translate(0,12)"><path
       inkscape:connector-curvature="0"
       style="fill:#333333;fill-opacity:1;fill-rule:evenodd"
       id="path3780"
       d="m 207.26012,110.07504 -96.14711,61.31316 c -10.43054,6.61873 -16.982444,16.74404 -19.529593,28.13926 l -23.108453,103.38132 0.131938,0.205 -30.441815,19.40765 C 21.679941,332.97664 16.820759,354.71553 27.30075,371.12566 L 49.980965,406.864 c 10.38544,16.48255 32.122272,21.34126 48.605218,10.86455 l 30.521317,-19.28242 0.13158,0.20723 103.55739,23.14786 c 11.08518,2.65781 23.34495,0.93255 33.76847,-5.69053 l 96.10984,-61.13779 z"
       clip-rule="evenodd"
       sodipodi:nodetypes="ccscccccccccccc" /></g><g
     inkscape:groupmode="layer"
     id="g3874"
     inkscape:label="Handle dropshadow"
     style="display:inline"
     transform="translate(0,12)"><path
       sodipodi:nodetypes="ccscccccccccccc"
       clip-rule="evenodd"
       d="m 211.8155,133.33766 -86.55042,55.19344 c -9.38943,5.95799 -15.28738,15.07263 -17.58029,25.3305 l -20.801952,93.06254 0.11878,0.18486 -27.403339,17.47054 c -14.839718,9.41165 -19.213893,28.98059 -9.77994,43.75293 l 20.416445,32.17116 c 9.348844,14.83744 28.916062,19.21123 43.753816,9.78013 l 27.47491,-17.35774 0.11841,0.18656 93.22106,20.83738 c 9.97872,2.39243 21.01483,0.83948 30.39796,-5.1226 l 86.51689,-55.03539 z"
       id="path3876"
       style="fill:#333333;fill-opacity:1;fill-rule:evenodd;filter:url(#filter3906)"
       inkscape:connector-curvature="0"
       transform="matrix(1.1108797,0,0,1.1108797,-26.66677,-33.137677)" /></g><g
     style="display:inline"
     inkscape:label="handle shadow overlaps plug"
     id="g3789"
     inkscape:groupmode="layer"
     transform="translate(0,12)"><path
       sodipodi:nodetypes="ccccc"
       inkscape:connector-curvature="0"
       id="path3793"
       d="M 230.38385,133.15772 394.44823,297.27094 345.7549,328.32951 224.34172,136.98829 z"
       style="fill:#4d4d4d;fill-opacity:1;stroke:none" /></g></svg>
