<?xml version="1.0" encoding="UTF-8" standalone="no"?>
<svg
   xmlns:dc="http://purl.org/dc/elements/1.1/"
   xmlns:cc="http://creativecommons.org/ns#"
   xmlns:rdf="http://www.w3.org/1999/02/22-rdf-syntax-ns#"
   xmlns:svg="http://www.w3.org/2000/svg"
   xmlns="http://www.w3.org/2000/svg"
   xmlns:sodipodi="http://sodipodi.sourceforge.net/DTD/sodipodi-0.dtd"
   xmlns:inkscape="http://www.inkscape.org/namespaces/inkscape"
   enable-background="new 0 0 500 500"
   height="48"
   id="Layer_1"
   version="1.1"
   viewBox="0 0 48 48"
   width="48"
   xml:space="preserve"
   inkscape:version="0.48.4 r9939"
   sodipodi:docname="icon.svg"
   inkscape:export-filename="/home/jan/Pictures/drivemount.png"
   inkscape:export-xdpi="92.160004"
   inkscape:export-ydpi="92.160004"><metadata
     id="metadata9"><rdf:RDF><cc:Work
         rdf:about=""><dc:format>image/svg+xml</dc:format><dc:type
           rdf:resource="http://purl.org/dc/dcmitype/StillImage" /><dc:title></dc:title></cc:Work></rdf:RDF></metadata><defs
     id="defs7"><filter
       id="filter3906"
       inkscape:label="Motion blur, vertical"
       inkscape:menu="Blurs"
       inkscape:menu-tooltip="Blur as if the object flies vertically; adjust Standard Deviation to vary force"
       color-interpolation-filters="sRGB"><feGaussianBlur
         id="feGaussianBlur3908"
         in="SourceGraphic"
         stdDeviation="0.01 5" /></filter><filter
       id="filter3925"
       inkscape:label="Motion blur, horizontal"
       inkscape:menu="Blurs"
       inkscape:menu-tooltip="Blur as if the object flies horizontally; adjust Standard Deviation to vary force"
       color-interpolation-filters="sRGB"><feGaussianBlur
         id="feGaussianBlur3927"
         in="SourceGraphic"
         stdDeviation="0.01 5" /></filter></defs><sodipodi:namedview
     pagecolor="#ffffff"
     bordercolor="#666666"
     borderopacity="1"
     objecttolerance="10"
     gridtolerance="10"
     guidetolerance="10"
     inkscape:pageopacity="0"
     inkscape:pageshadow="2"
     inkscape:window-width="1680"
     inkscape:window-height="990"
     id="namedview5"
     showgrid="false"
     inkscape:zoom="8"
     inkscape:cx="17.869508"
     inkscape:cy="22.591931"
     inkscape:window-x="0"
     inkscape:window-y="27"
     inkscape:window-maximized="1"
     inkscape:current-layer="g3910" /><g
     inkscape:groupmode="layer"
     id="layer4"
     inkscape:label="Container"
     transform="translate(0,-452)"><rect
       style="fill:#cccccc;fill-opacity:1;stroke:none"
       id="rect3819"
       width="44.668396"
       height="44.668396"
       x="1.7705004"
       y="453.75232"
       ry="2.4029205" /></g><g
     inkscape:groupmode="layer"
     id="layer2"
     inkscape:label="Handle Shadow"
     style="display:inline"
     transform="translate(0,-452)"><path
       style="fill:#676767;fill-opacity:1;stroke:none"
       d="m 19.685979,464.01986 24.356525,24.36432 6.4e-5,10.03636 -31.094449,3e-4 -6.9860208,-7.26052 z"
       id="path3787"
       inkscape:connector-curvature="0"
       sodipodi:nodetypes="cccccc" /></g><g
     inkscape:groupmode="layer"
     id="layer5"
     inkscape:label="bottom left shadow"
     style="display:inline"
     transform="translate(0,-452)"><rect
       style="fill:#666666;fill-opacity:1;stroke:none;display:inline"
       id="rect3823"
       width="4.7858996"
       height="4.7858996"
       x="41.650211"
       y="493.63202"
       ry="2.3929498" /></g><g
     inkscape:groupmode="layer"
     id="layer3"
     inkscape:label="Plug Shadow"
     style="display:inline"
     transform="translate(0,-452)"><path
       style="fill:#676767;fill-opacity:1;stroke:none;display:inline"
       d="m 36.500205,459.70058 9.938736,9.94433 -0.03504,26.40719 -11.314209,-7.8768 -6.059853,-7.17773 10.588087,-4.32458 0,-9.50579 z"
       id="path3797"
       inkscape:connector-curvature="0"
       sodipodi:nodetypes="cccccccc" /></g><g
     style="display:inline"
     inkscape:label="Plug dropshadow"
     id="g3910"
     inkscape:groupmode="layer"
     transform="translate(0,-452)"><path
       sodipodi:nodetypes="ccccccccccccccccccccccccc"
       inkscape:connector-curvature="0"
       style="fill:#333333;fill-opacity:1;fill-rule:evenodd;filter:url(#filter3925)"
       id="path3912"
       d="M 387.3409,94.669398 C 377.99127,79.843545 358.42232,75.469366 343.58021,84.887723 L 229.86333,156.85208 c 0.8829,0.77331 109.27677,172.19147 109.27677,172.19147 l 113.53492,-72.25107 c 16.96288,-16.84852 19.21535,-26.51626 9.78091,-43.75724 z m 2.47331,119.950812 5.84237,9.19445 c 4.86121,7.66355 2.62185,17.68191 -5.03873,22.54198 l -9.20229,5.83698 c -7.66036,4.85922 -17.6796,2.61966 -22.53421,-5.03699 l -5.84122,-9.19961 c -6.36217,-10.28424 -3.3103,-16.92761 5.03873,-22.54198 l 9.20114,-5.83183 c 7.65398,-4.86696 17.67406,-2.6272 22.53421,5.037 z m -42.54246,-67.03739 5.84196,9.19617 c 4.86121,7.66353 2.62224,17.68019 -5.03874,22.54198 l -9.2019,5.83527 c -7.66074,4.86091 -17.67999,2.62136 -22.53422,-5.03699 l -5.84158,-9.19791 c -5.74223,-10.66539 -3.68002,-16.88132 5.03872,-22.54197 l 9.20152,-5.83354 c 7.65294,-4.86629 17.67302,-2.62653 22.53424,5.03699 z"
       clip-rule="evenodd"
       transform="matrix(0.09970625,0,0,0.09970625,-1.3203933,451.15994)" /></g><g
     inkscape:groupmode="layer"
     id="layer1"
     inkscape:label="Plug"
     style="display:inline"
     transform="translate(0,-452)"><path
       clip-rule="evenodd"
       d="m 36.909644,460.22945 c -0.932215,-1.47823 -2.883364,-1.91435 -4.363216,-0.97529 l -11.338283,7.1753 c 0.08803,0.077 10.895579,17.16856 10.895579,17.16856 l 11.320142,-7.20388 c 1.479793,-0.93963 1.915889,-2.8906 0.975217,-4.36287 z m 0.570648,11.95985 0.582521,0.91675 c 0.484695,0.76409 0.261417,1.76299 -0.502394,2.24758 l -0.917528,0.58198 c -0.763784,0.48449 -1.762763,0.26119 -2.246797,-0.50223 l -0.582406,-0.91726 c -0.484791,-0.76367 -0.26151,-1.76256 0.502391,-2.24757 l 0.917412,-0.58147 c 0.76315,-0.48526 1.762213,-0.26195 2.246801,0.50222 z m -4.241748,-6.68405 0.582479,0.91692 c 0.484694,0.7641 0.261458,1.76282 -0.502391,2.24757 l -0.91749,0.58182 c -0.763823,0.48466 -1.762804,0.26137 -2.246799,-0.50222 l -0.582445,-0.91709 c -0.484408,-0.76377 -0.261166,-1.76249 0.50239,-2.24758 l 0.917452,-0.58163 c 0.763044,-0.48521 1.76211,-0.26189 2.246804,0.50221 z"
       id="path3"
       style="fill:#b3b3b3;fill-opacity:1;fill-rule:evenodd"
       inkscape:connector-curvature="0"
       sodipodi:nodetypes="ccccccccccccccccccccccccc" /></g><g
     style="display:inline"
     inkscape:label="Handle"
     id="g3778"
     inkscape:groupmode="layer"
     transform="translate(0,-452)"><path
       inkscape:connector-curvature="0"
       style="fill:#333333;fill-opacity:1;fill-rule:evenodd"
       id="path3780"
       d="m 19.675555,464.0139 -8.629618,5.50312 c -0.936186,0.59406 -1.5242479,1.50285 -1.7528655,2.52562 l -2.0740834,9.27892 0.011842,0.0184 -2.7322843,1.74192 c -1.479613,0.9384 -1.9157456,2.88956 -0.9751212,4.36244 l 2.0356472,3.20767 c 0.9321381,1.47938 2.8831126,1.91547 4.3625282,0.97514 l 2.73942,-1.73068 0.01181,0.0186 9.294723,2.07762 c 0.994942,0.23855 2.09531,0.0837 3.030866,-0.51075 l 8.626273,-5.48738 z"
       clip-rule="evenodd"
       sodipodi:nodetypes="ccscccccccccccc" /></g><g
     inkscape:groupmode="layer"
     id="g3874"
     inkscape:label="Handle dropshadow"
     style="display:inline"
     transform="translate(0,-452)"><path
       sodipodi:nodetypes="ccscccccccccccc"
       clip-rule="evenodd"
       d="m 211.8155,133.33766 -86.55042,55.19344 c -9.38943,5.95799 -15.28738,15.07263 -17.58029,25.3305 l -20.801952,93.06254 0.11878,0.18486 -27.403339,17.47054 c -14.839718,9.41165 -19.213893,28.98059 -9.77994,43.75293 l 20.416445,32.17116 c 9.348844,14.83744 28.916062,19.21123 43.753816,9.78013 l 27.47491,-17.35774 0.11841,0.18656 93.22106,20.83738 c 9.97872,2.39243 21.01483,0.83948 30.39796,-5.1226 l 86.51689,-55.03539 z"
       id="path3876"
       style="fill:#333333;fill-opacity:1;fill-rule:evenodd;filter:url(#filter3906)"
       inkscape:connector-curvature="0"
       transform="matrix(0.09970625,0,0,0.09970625,-1.3203933,451.15994)" /></g><g
     style="display:inline"
     inkscape:label="handle shadow overlaps plug"
     id="g3789"
     inkscape:groupmode="layer"
     transform="translate(0,-452)"><path
       sodipodi:nodetypes="ccccc"
       inkscape:connector-curvature="0"
       id="path3793"
       d="m 21.75101,466.08567 14.725486,14.72987 -4.370437,2.78764 -10.897357,-17.1737 z"
       style="fill:#4d4d4d;fill-opacity:1;stroke:none" /></g></svg>